# xmcd CD database file
#
# Track frame offsets:
#	150
#	29672
#	64305
#	93222
#
# Disc length: 2206 seconds
#
# Revision: 2
# Processed by: cddbd v1.5.1PL2 Copyright (c) Steve Scherf et al.
# Submitted via: CDex 1.70beta2
#
DISCID=30089c04
DTITLE=Lenny Mac Dowell - Balance of Power
DYEAR=1984
DGENRE=Jazz
TTITLE0=Free Fall
TTITLE1=Bedouin Path
TTITLE2=Lifting the Veil
TTITLE3=Balance of Power
EXTD=YEAR: 1984
EXTT0=
EXTT1=
EXTT2=
EXTT3=
PLAYORDER=
